<?xml version="1.0" encoding="UTF-8" standalone="no"?>
<!-- Created with Inkscape (http://www.inkscape.org/) -->

<svg
   xmlns:dc="http://purl.org/dc/elements/1.1/"
   xmlns:cc="http://creativecommons.org/ns#"
   xmlns:rdf="http://www.w3.org/1999/02/22-rdf-syntax-ns#"
   xmlns:svg="http://www.w3.org/2000/svg"
   xmlns="http://www.w3.org/2000/svg"
   xmlns:sodipodi="http://sodipodi.sourceforge.net/DTD/sodipodi-0.dtd"
   xmlns:inkscape="http://www.inkscape.org/namespaces/inkscape"
   width="86.183968"
   height="77.55732"
   viewBox="0 0 22.802841 20.520374"
   version="1.1"
   id="svg16414"
   inkscape:version="0.92.0 r15299"
   sodipodi:docname="alcoa.svg">
  <defs
     id="defs16408" />
  <sodipodi:namedview
     id="base"
     pagecolor="#ffffff"
     bordercolor="#666666"
     borderopacity="1.0"
     inkscape:pageopacity="0.0"
     inkscape:pageshadow="2"
     inkscape:zoom="6.9621012"
     inkscape:cx="42.591997"
     inkscape:cy="38.278657"
     inkscape:document-units="mm"
     inkscape:current-layer="layer1"
     showgrid="false"
     fit-margin-top="0"
     fit-margin-left="0"
     fit-margin-right="0"
     fit-margin-bottom="0"
     units="px"
     inkscape:window-width="1280"
     inkscape:window-height="744"
     inkscape:window-x="-4"
     inkscape:window-y="-4"
     inkscape:window-maximized="1" />
  <metadata
     id="metadata16411">
    <rdf:RDF>
      <cc:Work
         rdf:about="">
        <dc:format>image/svg+xml</dc:format>
        <dc:type
           rdf:resource="http://purl.org/dc/dcmitype/StillImage" />
        <dc:title></dc:title>
      </cc:Work>
    </rdf:RDF>
  </metadata>
  <g
     inkscape:label="Layer 1"
     inkscape:groupmode="layer"
     id="layer1"
     transform="translate(-78.6892,-207.98848)">
    <g
       id="g16453"
       transform="translate(0.13229071,-0.13228811)">
      <path
         d="m 80.643236,226.14877 h 1.564922 l -0.778228,-2.5587 z m -0.0081,-3.6516 h 1.746956 l 1.921227,5.92031 H 82.90385 l -0.405694,-1.31656 h -2.144537 l -0.405694,1.31656 H 78.6892 l 1.945922,-5.92031"
         style="fill:#1a5490;fill-opacity:1;fill-rule:nonzero;stroke:none;stroke-width:0.35277778"
         id="path16010"
         inkscape:connector-curvature="0" />
      <path
         inkscape:connector-curvature="0"
         id="path16012"
         style="fill:#1a5490;fill-opacity:1;fill-rule:nonzero;stroke:none;stroke-width:0.35277778"
         d="m 85.072009,228.41749 h 1.192389 v -6.29285 h -1.192389 z" />
      <path
         d="m 87.191145,226.30611 v -0.0663 c 0,-1.39912 1.001889,-2.25214 2.235553,-2.25214 1.001889,0 1.929341,0.43886 2.036939,1.68099 h -1.134181 c -0.0829,-0.50518 -0.389467,-0.73695 -0.877711,-0.73695 -0.621242,0 -1.03505,0.46355 -1.03505,1.29152 v 0.0663 c 0,0.8696 0.389114,1.31657 1.059744,1.31657 0.480131,0 0.869598,-0.28152 0.927453,-0.83644 h 1.084792 c -0.06632,1.02694 -0.811742,1.73919 -2.0701,1.73919 -1.266825,0 -2.227439,-0.78669 -2.227439,-2.20274"
         style="fill:#1a5490;fill-opacity:1;fill-rule:nonzero;stroke:none;stroke-width:0.35277778"
         id="path16016"
         inkscape:connector-curvature="0" />
      <path
         d="m 95.46096,226.28106 v -0.0579 c 0,-0.82796 -0.389114,-1.32503 -1.059744,-1.32503 -0.662517,0 -1.060098,0.48048 -1.060098,1.30845 v 0.0663 c 0,0.82797 0.381,1.32468 1.060098,1.32468 0.67063,0 1.059744,-0.49671 1.059744,-1.31657 m -3.345392,0.0166 v -0.0663 c 0,-1.35784 0.985661,-2.24367 2.285648,-2.24367 1.299986,0 2.276827,0.86925 2.276827,2.21897 v 0.0663 c 0,1.3663 -0.985308,2.23555 -2.285294,2.23555 -1.29152,0 -2.277181,-0.86113 -2.277181,-2.21086"
         style="fill:#1a5490;fill-opacity:1;fill-rule:nonzero;stroke:none;stroke-width:0.35277778"
         id="path16020"
         inkscape:connector-curvature="0" />
      <path
         d="m 100.04319,226.9023 v -0.36442 h -0.46355 c -0.695678,0 -1.101372,0.14923 -1.101372,0.61278 0,0.31467 0.1905,0.52175 0.629355,0.52175 0.529873,0 0.935567,-0.28998 0.935567,-0.77011 m -2.74073,0.31468 c 0,-1.01036 0.927452,-1.391 2.252133,-1.391 h 0.488597 v -0.17392 c 0,-0.51365 -0.157339,-0.79517 -0.703792,-0.79517 -0.472016,0 -0.687211,0.24025 -0.736952,0.61278 h -1.134181 c 0.07444,-1.02658 0.885825,-1.48202 1.945569,-1.48202 1.059746,0 1.813626,0.43074 1.813626,1.6062 v 2.82363 h -1.16769 v -0.52141 c -0.248355,0.34749 -0.629355,0.61243 -1.308099,0.61243 -0.786695,0 -1.449211,-0.38065 -1.449211,-1.29152"
         style="fill:#1a5490;fill-opacity:1;fill-rule:nonzero;stroke:none;stroke-width:0.35277778"
         id="path16024"
         inkscape:connector-curvature="0" />
      <path
         d="m 90.414827,216.24947 -2.999669,-3.59974 h 5.999338 z m 3.333044,-3.99662 -3.333044,-3.99979 -6.666089,7.99958 3.333045,3.99945 3.333044,-3.99945 3.333044,3.99945 3.333045,-3.99945 -3.333045,-3.99979"
         style="fill:#1a5490;fill-opacity:1;fill-rule:nonzero;stroke:none;stroke-width:0.35277778"
         id="path16028"
         inkscape:connector-curvature="0" />
    </g>
  </g>
</svg>
