<?xml version="1.0" encoding="UTF-8" standalone="no"?>
<svg id="Layer_1" height="315.353" viewBox="0 0 310.99987 315.35299" width="310.99988" xmlns="http://www.w3.org/2000/svg">
   <g id="XMLID_1_" transform="matrix(2.7048448 0 0 2.7048448 1.7295155 1.7295155)">
      <path id="XMLID_2_" d="m77.2 66.2c.2-.5.4-1.1.5-1.7l13.9 4.8c2-6.5 2.2-13.6.3-20.6-.6-2.2-1.5-4.4-2.5-6.4l6.4-2.8c-2.3-4.7-5.4-9-9.4-12.7-4-3.8-8.6-6.6-13.4-8.5l-7.4 20.4c-1-.4-1.9-.8-3-1.1l4-14.1c-5-1.4-10.5-1.8-15.9-.9l1 6.1c-1 .2-2 .4-2.9.6l-2.8-12.9c-7.8 2-15.2 6.2-21.2 12.5-5.9 6.4-9.6 14-11 22l6.9 1c-.2 1-.3 1.9-.4 2.9l6.2.4c-.3 2.3-.3 4.5 0 6.8l18.5-2.7c-.1-1 0-2 .2-2.9 0-.1 0-.2.1-.3 0-.1 0-.2.1-.3.1-.3.1-.5.2-.8 0-.1.1-.2.1-.4.1-.3.2-.5.3-.8 0-.1.1-.2.1-.3.2-.3.3-.7.5-1 0 0 .1-.1.1-.1.2-.3.4-.7.7-1 0-.1.1-.1.1-.2.2-.2.3-.4.5-.6 1.3-1.4 2.8-2.3 4.4-3 .3-.1.6-.2.9-.3 0 0 .1 0 .1 0 .4-.1.7-.2 1.1-.2 0 0 .1 0 .1 0 .1 0 .3 0 .4-.1.2 0 .5-.1.7-.1.1 0 .1 0 .2 0 .2 0 .4 0 .6 0 .2 0 .4 0 .6 0 0 0 0 0 .1 0 .4 0 .7.1 1.1.1.1 0 .1 0 .2 0 .4.1.8.1 1.2.3.9.2 1.7.6 2.6 1 .1.1.2.1.3.2.1.1.2.1.4.2.2.1.5.3.7.5 0 0 0 0 0 0 .1 0 .1.1.2.1.3.2.5.4.8.7.3.3.5.5.8.8.1.1.1.1.2.2.2.3.4.5.6.8 0 0 0 0 .1.1 0 .1.1.1.1.2.2.3.4.6.5.8 0 .1.1.1.1.2.2.3.3.7.5 1 0 0 0 0 0 0 .1.3.3.7.4 1 0 .1 0 .1.1.2.1.3.2.6.2.9 0 .1 0 .2.1.4 0 .3.1.5.1.8 0 .1 0 .2 0 .3 0 .3 0 .6 0 1 0 .1 0 .2 0 .3 0 .3 0 .5-.1.7 0 .2 0 .3-.1.5 0 .1 0 .2-.1.4 0 .2-.1.3-.1.5-.1.5-.2.9-.4 1.4-.1.3-.2.6-.4.9 0 .1-.1.1-.1.2-.5 1.1-1.2 2.1-2.1 3-.1.1-.1.1-.2.2-1.1 1.1-2.4 2-3.7 2.6-.1 0-.1.1-.2.1-.2.1-.3.1-.5.2-.2.1-.5.2-.7.2-.1 0-.1 0-.2.1-.3.1-.7.2-1 .2-.1 0-.3 0-.4.1-.2 0-.5.1-.7.1-.1 0-.3 0-.4 0-.3 0-.6 0-.9 0-.1 0-.1 0-.2 0-.4 0-.7-.1-1.1-.1-.6-.1-1.1-.2-1.7-.3l-12.3 29.1c11.1 4.3 23.6 3.9 34.4-1.2l-3.2-6.2c2.3-1.1 4.5-2.4 6.4-3.8l-3.8-4.9c1.3-.9 2.5-2 3.6-3.1l9.3 9.3c.3-.3.6-.6 1-1 3.9-4.2 6.8-8.9 8.7-13.9z" fill="#e63312"/>
      <path id="XMLID_3_" d="m46.4 77.8l4.5-9c-.8-.4-1.5-1-2.1-1.6-.2-.2-.5-.5-.7-.7 0 0-.1-.1-.1-.2-.3-.3-.5-.6-.7-.9-.1-.1-.1-.2-.2-.3-.2-.3-.3-.5-.5-.8-.1-.1-.1-.2-.2-.3-.2-.3-.3-.6-.4-.9 0-.1-.1-.1-.1-.2-.1-.3-.3-.7-.4-1 0-.1-.1-.3-.1-.4l-24 5.9c.1.3.2.6.2 1l-6.7 1.9c1.7 6 4.6 11.8 8.9 16.7l10.1-8.5c1.1 1.2 2.2 2.4 3.5 3.4l5.6-6.4c.9.8 2.1 1.6 3.4 2.3" fill="#e63312"/>
      <polygon id="XMLID_4_" fill="#4a4a49" points=".7 48.9 6.9 49.7 6.7 50.7 4 50.4 3.6 53.2 6.4 53.5 6.2 54.6 .1 53.8 .2 52.7 2.7 53.1 3 50.3 .6 49.9"/>
      <path id="XMLID_5_" d="m .8 41.5l.3-1.1.9 1.5-.2.7zm1.4 1.2l.3-1.1 6.6-.5-.3 1.1-1.7.1-.7 2.4 1.4 1-.3 1.1zm3.5 1.4l.5-1.8-2.8.1v0z" fill="#4a4a49"/>
      <path id="XMLID_9_" d="m8.8 36.8c.9.4 1.5 0 1.9-.8.4-.9.2-1.4-.3-1.6-.4-.2-.7-.1-.9.1-.3.3-.7.8-1.3 1.4-.7.8-1.4.8-2 .5-1.1-.5-1.1-1.8-.6-2.8.6-1.2 1.7-1.8 2.8-1.3l-.5 1c-.7-.3-1.2 0-1.6.7-.2.5-.3 1.1.2 1.4.4.2.7 0 1-.3.1-.1 1-1.1 1.2-1.4.6-.6 1.4-.7 1.9-.4 1.2.6 1.2 2 .7 3.1-.6 1.3-1.7 2-3.1 1.3z" fill="#4a4a49"/>
      <polygon id="XMLID_10_" fill="#4a4a49" points="12.6 27 17.2 26.9 16.4 28 12.8 28 13 29.2 14.7 30.4 14.1 31.3 9 27.7 9.7 26.8 12 28.5 11.3 24.6 12 23.5"/>
      <path id="XMLID_11_" d="m15.5 17.2l.8-.8v1.7l-.5.5zm5.4 1.4c1.2 1.3 1.5 3.1.2 4.4-1.3 1.3-3.1 1-4.4-.2-1.2-1.3-1.5-3.1-.2-4.4 1.3-1.3 3.1-1.1 4.4.2m-3.4 3.4c.8.8 2.1 1.3 3 .3.9-.9.5-2.2-.3-3-.8-.8-2.1-1.3-3-.3-1 .9-.6 2.2.3 3" fill="#4a4a49"/>
      <polygon id="XMLID_15_" fill="#4a4a49" points="25.7 18.6 22.1 13.6 23 13 26 17.3 28.6 15.4 29.1 16.2"/>
      <rect id="XMLID_16_" fill="#4a4a49" height="6.1999998" transform="matrix(-.8758 .4826 -.4826 -.8758 63.4878 6.8831)" width="1.1" x="30.299999" y="8.5"/>
      <polygon id="XMLID_17_" fill="#4a4a49" points="38.6 4.8 40.8 10.6 39.7 11 35.5 7.7 35.4 7.8 37.1 12 36.1 12.4 33.9 6.6 35 6.2 39.2 9.4 39.3 9.4 37.6 5.2"/>
      <polygon id="XMLID_18_" fill="#4a4a49" points="48 2.5 49.2 8.6 48.1 8.8 44.4 4.9 44.4 4.9 45.3 9.3 44.3 9.6 43 3.5 44.2 3.3 47.8 7.2 47.9 7.2 47 2.7"/>
      <path id="XMLID_19_" d="m57.9 1.9h1.1l-.2 6.2h-1.1zm.8-1.8h1.2l-1.3 1.2h-.7z" fill="#4a4a49"/>
      <path id="XMLID_22_" d="m68.9 3.2l2.9.8c1.3.3 1.8 1.1 1.6 2.1-.3 1.1-1.2 1.2-1.4 1.2v0c .3.1.8.6.6 1.5-.2.7-.3 1.4-.1 1.7l-1.1-.3c-.1-.3 0-.6.1-.9.3-1.1.2-1.6-.8-1.9l-1.6-.4-.7 2.5-1-.3zm.4 3l1.7.4c.7.2 1.1-.1 1.3-.7.2-.8-.3-1-.8-1.2l-1.7-.4z" fill="#4a4a49"/>
      <polygon id="XMLID_25_" fill="#4a4a49" points="80.8 10 80.4 10.8 77.6 9.6 76.8 11.2 80 12.6 79.6 13.5 75.5 11.6 78 6 82.1 7.8 81.7 8.7 78.6 7.3 78 8.8"/>
      <polygon id="XMLID_26_" fill="#4a4a49" points="90.1 12.6 86.1 14.5 84.8 16.6 83.8 16 85.2 13.9 85.3 9.5 86.3 10.2 86.2 13.4 89.1 12"/>
      <polygon id="XMLID_27_" fill="#4a4a49" points="93.5 18.8 93 23.3 92 22.4 92.5 18.8 91.2 18.9 89.8 20.4 89 19.7 93.2 15.1 94 15.8 92.1 17.9 96 17.7 97 18.6"/>
      <path id="XMLID_28_" d="m98.6 26.9c-.8.7-1.8 1.1-2.9-.2-.8-1-.5-2 .4-2.7l.3-.2.7.8-.2.2c-.5.4-.7.8-.3 1.4.4.5.9.4 1.5-.1l3.3-2.7.7.8z" fill="#4a4a49"/>
      <path id="XMLID_29_" d="m105.4 29.4l.6 1-4.1 5.2-.6-1 1.1-1.3-1.2-2.1-1.7.3-.6-1zm-3.4 1.6l1 1.6 1.8-2.1v0z" fill="#4a4a49"/>
      <polygon id="XMLID_32_" fill="#4a4a49" points="110.3 39.9 103.8 40.2 103.4 39.1 108.3 34.9 108.7 35.9 104.8 39.2 109.9 38.9"/>
      <path id="XMLID_33_" d="m111.4 43.5l.3 1-6 1.6-.3-1zm1.9.2l.3 1.1-1.5-.9-.2-.7z" fill="#4a4a49"/>
      <polygon id="XMLID_36_" fill="#4a4a49" points="110.6 52 107.2 55.1 107.1 53.8 109.7 51.4 108.7 50.6 106.7 50.9 106.5 49.8 112.7 49 112.8 50.1 110 50.5 113.2 52.8 113.3 54.2"/>
      <path id="XMLID_37_" d="m7 68.6l.7 2.9c.3 1.3-.1 2.1-1.1 2.4-1.2.3-1.6-.4-1.8-.6v0c0 .4-.1 1-1 1.2-.7.2-1.3.4-1.5.7l-.3-1.1c.2-.2.5-.3.8-.4 1.1-.3 1.5-.6 1.3-1.6l-.4-1.5-2.5.6-.3-1zm-2.5 1.7l.4 1.7c.2.7.6.9 1.2.8.8-.2.8-.7.7-1.3l-.4-1.7z" fill="#4a4a49"/>
      <polygon id="XMLID_40_" fill="#4a4a49" points="8.6 81.4 7.8 81.8 6.6 78.9 4.9 79.6 6.3 82.8 5.4 83.1 3.6 79 9.3 76.5 11.1 80.6 10.2 81 8.9 77.9 7.4 78.6"/>
      <polygon id="XMLID_41_" fill="#4a4a49" points="15.3 87.7 10.8 87.8 8.8 89 8.2 88.1 10.3 86.8 12.2 82.9 12.9 83.9 11.4 86.8 14.6 86.7"/>
      <polygon id="XMLID_42_" fill="#4a4a49" points="16.9 93.6 15.8 98 14.9 97 15.8 93.5 14.6 93.4 13 94.8 12.3 94 17 89.9 17.7 90.7 15.5 92.6 19.5 92.8 20.4 93.8"/>
      <path id="XMLID_43_" d="m22.4 101.2c-.7.8-1.6 1.5-2.9.3-1-.8-.9-1.8-.1-2.7l.2-.3.8.7-.2.2c-.5.5-.6 1-.1 1.4.5.5.9.2 1.4-.3l2.8-3.2.8.7z" fill="#4a4a49"/>
      <path id="XMLID_44_" d="m29.3 101l1 .6-1.3 6.5-1-.6.4-1.7-2.1-1.3-1.4 1.1-.9-.6zm-2.3 3l1.6 1 .6-2.7v0z" fill="#4a4a49"/>
      <polygon id="XMLID_47_" fill="#4a4a49" points="38.6 105.8 34.2 110.6 33.1 110.1 33.7 103.6 34.7 104.1 34.2 109.2 37.6 105.4"/>
      <path id="XMLID_48_" d="m41.4 106.7l1 .3-1.8 5.9-1-.3zm1.2-1.5l1.1.3-1.5.8-.7-.2z" fill="#4a4a49"/>
      <polygon id="XMLID_51_" fill="#4a4a49" points="48.2 110.8 50.1 114.9 48.8 114.7 47.3 111.5 46.3 112.2 45.9 114.2 44.9 114 45.9 107.9 47 108.1 46.5 110.9 49.7 108.6 51 108.8"/>
      <path id="XMLID_52_" d="m58.6 109.1l1.1-.1.3 3.6c.1.8.2 1.8 1.6 1.7 1.4-.1 1.4-1.1 1.3-1.9l-.3-3.6 1.1-.1.3 3.9c.1 1.6-.8 2.5-2.3 2.6-1.5.1-2.6-.6-2.7-2.1z" fill="#4a4a49"/>
      <polygon id="XMLID_53_" fill="#4a4a49" points="71.9 106.8 73.4 112.8 72.3 113.1 68.4 109.4 68.4 109.4 69.6 113.8 68.6 114 67 108.1 68.1 107.8 72 111.5 70.9 107.1"/>
      <rect id="XMLID_54_" fill="#4a4a49" height="6.1999998" transform="matrix(-.9273 .3744 -.3744 -.9273 188.6073 179.8454)" width="1.1" x="76.300003" y="105.1"/>
      <polygon id="XMLID_55_" fill="#4a4a49" points="83.6 101.4 84.7 107.9 83.7 108.5 78.9 104 79.9 103.5 83.6 107 82.6 102"/>
      <polygon id="XMLID_56_" fill="#4a4a49" points="90.8 99.3 91.3 100 88.9 101.9 90 103.4 92.7 101.3 93.3 102 89.7 104.8 85.9 99.8 89.5 97.1 90 97.9 87.3 99.9 88.3 101.2"/>
      <path id="XMLID_57_" d="m91.8 95l2-2.1c.9-1 1.9-1.1 2.6-.3.9.8.5 1.6.4 1.8v0c .3-.2.9-.4 1.6.2.5.5 1.1.9 1.4.9l-.8.8c-.3-.1-.6-.3-.8-.5-.8-.8-1.3-1-2-.2l-1.1 1.2 1.8 1.8-.7.8zm2.8 1.1l1.2-1.3c.5-.5.5-1 0-1.4-.6-.5-1-.3-1.4.1l-1.2 1.3z" fill="#4a4a49"/>
      <path id="XMLID_60_" d="m101.1 90.5c.8.5 1.5.2 2-.5.5-.8.4-1.3 0-1.6-.4-.3-.7-.2-.9 0-.4.3-.8.7-1.5 1.2-.8.7-1.5.6-2.1.2-1-.7-.8-2-.2-2.9.7-1.1 1.9-1.6 3-.8l-.6.9c-.7-.4-1.2-.1-1.7.5-.3.4-.5 1 0 1.4.4.2.7.1 1.1-.2.1-.1 1.1-1 1.4-1.2.7-.5 1.5-.5 2-.1 1.1.8.9 2.1.2 3.1-.8 1.2-2 1.7-3.3.9z" fill="#4a4a49"/>
      <rect id="XMLID_61_" fill="#4a4a49" height="6.1999998" transform="matrix(-.4611 .8873 -.8873 -.4611 226.4113 28.6302)" width="1.1" x="104" y="80"/>
      <polygon id="XMLID_62_" fill="#4a4a49" points="109.8 78.8 104.9 76.9 104.2 78.8 103.4 78.4 105.1 73.7 106 74.1 105.3 75.9 110.2 77.8"/>
      <polygon id="XMLID_63_" fill="#4a4a49" points="106.9 66 110.1 69.1 112.5 69.6 112.3 70.6 109.9 70.1 105.8 71.6 106 70.4 109.1 69.4 106.7 67.2"/>
   </g>
</svg>
